# xmcd
#
# Track frame offsets:
#	150
#	3374
#	16484
#	38539
#	59723
#	77234
#	97089
#	125690
#	144161
#
# Disc length: 1938 seconds
#
# Revision: 0
# Processed by: cddbd v1.5.2PL0 Copyright (c) Steve Scherf et al.
# Submitted via: audiograbber 1.83.01
#
DISCID=72079009
DTITLE=Escarabajos - Homónimo
DYEAR=2013
DGENRE=Blues
TTITLE0=Intro
TTITLE1=Mis 2 Novias
TTITLE2=Canción Del "Gancho"
TTITLE3=Rutina Santiaguina
TTITLE4=Lo Cortés No Quita Lo Caliente
TTITLE5=Provinciano En La Capital
TTITLE6=Esta Mañana Te Marchaste
TTITLE7=Bajo Este Cielo Gris
TTITLE8=Outro
EXTD=
EXTT0=
EXTT1=
EXTT2=
EXTT3=
EXTT4=
EXTT5=
EXTT6=
EXTT7=
EXTT8=
PLAYORDER=
